<?xml version="1.0" encoding="utf-8"?>
<!-- Generator: Adobe Illustrator 24.0.1, SVG Export Plug-In . SVG Version: 6.00 Build 0)  -->
<svg version="1.1" id="Layer_1" xmlns="http://www.w3.org/2000/svg" xmlns:xlink="http://www.w3.org/1999/xlink" x="0px" y="0px"
	 viewBox="0 0 140 140" style="enable-background:new 0 0 140 140;" xml:space="preserve">
<style type="text/css">
	.st0{fill-rule:evenodd;clip-rule:evenodd;fill:url(#SVGID_1_);}
	.st1{fill-rule:evenodd;clip-rule:evenodd;fill:#6C6D6D;}
	.st2{fill:#6C6D6D;}
</style>
<radialGradient id="SVGID_1_" cx="93.3983" cy="744.6177" r="47.69" gradientTransform="matrix(0.997 0 0 0.997 -1.2035 -649.7935)" gradientUnits="userSpaceOnUse">
	<stop  offset="0" style="stop-color:#738AA3"/>
	<stop  offset="1" style="stop-color:#2C3341"/>
</radialGradient>
<path class="st0" d="M135.6,65c0.4,6.4-3.6,14.9-15,15c-7.4,0.1-4.5-3.6-10.5,2.5c-2.1,2.1-5,4.8-7.2,7.2
	c-6,6.5-15.8,15.3-21.6,21.6c-1.5,1.6-3,2.2-2.8,4.3c0.2,2.4,0.9,3.6,0.8,6.2c-0.3,8.3-7.6,13.1-14.8,14.2c0.1-0.7,1.9-2.5,2.8-3.4
	c5.3-5.9,7.3-5.7,3.4-9.6c-1.1-1-11.2-11.4-12.5-11.4c-3.4,1-6.8,7.4-9.4,8.1c-1.1-5.4,3.8-13.3,12.9-14.9c6-0.9,6.4,3.6,11.3-1.6
	c2.4-2.4,4.8-4.9,7.2-7.2c5-4.7,9.5-9.6,14.4-14.4c15.1-14.7,10.2-9.3,10.2-17.6c0-8.4,6.6-14.9,14.8-15.2c-0.9,2.2-6.8,6.6-7.8,8.5
	c-1.2,2.2,1.1,3.6,2.2,4.7c1.2,1.2,2.8,2.8,4.1,4.1c8.3,8.3,6.7,9.2,13.1,2.4C132.3,67.7,134,65.6,135.6,65L135.6,65z M44.6,118.2
	c-0.3,2.5-0.2,6.8,1.2,7.9c3.1,1.9,8.6-7.4,12.3-9.6l9.7,9.7l-8.5,8.7c-1.1,1.1-2,1.6-1.5,3.9c4.1,2.5,13,0.7,17.6-2.9
	c4.3-3.4,7.9-9.2,6.7-17.9c-0.1-0.7-0.3-2.2,1-3.6c6.3-6.3,24.3-23.6,29.9-30.3c1.1-1.3,2.8-1.3,3.5-1.2c7.4,0.9,15.9-3,18.6-6.4
	c5.4-6.4,5.3-18.1,1.8-18.2c-2.9,0.7-8.4,9-11.2,10.1c-0.8,0-9.4-9.1-9.6-9.5c1-2.9,9.4-8.1,10.1-11.5c-0.3-2.6-5.7-2.1-7.8-2.1
	c-4.1,0-7.9,2.2-10.3,4.1c-4.7,3.8-5.9,7.5-6.5,11.9c-0.6,3.8,1.7,8.7-0.2,9.5c-8.8,8.7-22.8,20.9-33,30.7c-4.1,0.7-7.1-0.3-10,0.8
	C54.2,103.7,46.1,107.3,44.6,118.2z M108.7,70.2c0.6,2.4-3.4,5.3-3.4,5.3l-32.1,31.7c0,0-2.4,2.8-6.4,1.2c-4.8-1.7-8.8,0.2-7.3,0.8
	c0.8,0.3,4.5,3.1,7.1,5.4c3.5,3,4.7,4.9,6.2,6.4c1.5,1.5,2.9,4.3,3.1,1.8c0.3-3.9-0.2-6-0.3-7.2c-0.1-1.1-0.4-1.6,1.3-4.1
	c1.8-2.4,18.6-17.6,18.6-17.6L110.3,78c0,0,1.9-3,4.1-2.1c1.5,0.6,6,1.2,9,1c0.6,0,0.2-1.1-0.2-1.5c-2-1.7-5.5-4.8-6.7-6.2
	c-1.3-1.7-5-5.3-6.4-7.3c-1.1-1.7-2-4-2.2,3.2C107.7,68,108.1,67.1,108.7,70.2z"/>
<path class="st1" d="M28.7,84.6c7-2,9.1,8,3.2,10C24.9,96.9,21.9,86.5,28.7,84.6L28.7,84.6z M28,81.1c-12,3.9-6.1,19.8,4.4,17
	c3.9-1.1,7.7-5.4,6.2-10.6C37.3,82.5,32.1,79.7,28,81.1L28,81.1z M49.8,84.8c-1.6-0.7-3-0.1-4.4-1.3c-0.8-3.8,4.4-4.3,0.9-7.7
	c-4.8-4.9-4.3-3.9-6.3-3.2c-0.1,0-1.9,1.2-2.5,1.3c-1.8,0.7-2.3-0.5-2.3-0.5c-0.8-2.3-0.2-4.5-2.6-4.9c-0.8-0.1-5.8,0.1-6.5,0.4
	c-1.8,1.6-0.7,3.6-2.4,5.6c-3.2,0.5-3.9-3.6-6.5-1.9c-1.2,0.8-3.9,3.7-4.8,5.1c0.5,3.5,5.8,5.8-0.8,6.9c-2.5,0.4-2.7,0.8-2.7,3.5
	c0,2.1,0,4.2,0.5,5.8c0,0,4.4-0.5,5.1,0.9c1.6,1.8-0.8,3.8-1.4,4.4c-0.7,0.5-0.9,1.4-0.1,3.1c0.1,0.2,3.9,5.5,6.3,4.5
	c1.3-0.5,3.3-3.1,4.9-1.8c1.2,0.9,0.5,3.7,2.1,5.5c1.6,0.2,6.3,0.4,7.6-0.1c1.1-0.7,0.9-1.3,1.3-3.5c1.1-6,4.9,2,7.9-0.4
	c0.2-0.2,4.3-4.4,4.4-4.6c0.9-2.5-2.7-3.6-1.9-6.2c0.9-1.3,3-0.9,4.5-1.6c1.5-0.8,1.3-2.5,1.2-4.8C51.1,87.1,51.7,85.5,49.8,84.8z
	 M42,93.8c-0.5,1.2-1.4,2.7-0.9,4.2c0.9,2.4,3.7,3.2,0,5.4c-3.5-1.4-2-3.2-6.9-1.2c-1.8,0.7-2,0.7-2.4,2.6c-0.2,1.8,0,3-2.1,3
	s-1.8-1.2-2.1-3c-0.4-2-0.7-2-2.4-2.6c-4.8-2-3.3-0.1-6.9,1.2c-0.7-0.5-1.2-1.1-1.9-1.8c0.4-3.3,3.2-2.1,1.3-6.7
	c-0.7-1.4-0.5-2.3-2-2.7c-1.4-0.5-2.1-0.1-3.6-0.9c-0.1-3.5-0.4-3,1.9-3.3c3.2-0.5,2.7-0.8,3.7-3.2c1.8-3.8-0.4-3.5-1.3-6.1
	c1.6-4.5,4.4,0.7,7.2-0.1c4.9-1.4,3.7-3,4.6-6.2l3,0.1c1.8,3.3-1.1,3.3,3.6,5.6c3.7,1.8,3.3-0.4,6.3-1.3c0.9,0.5,1.4,1.1,1.9,2
	c-1.2,3.1-3,2.3-1.3,6.1c1.4,3.7,1.6,2.6,5.6,3.6C48.6,94.1,43.8,89.8,42,93.8z"/>
<path class="st2" d="M98.1,62.9c0-4.2,0-6.1-3.9-7.4h-0.1h-5.6c0-0.2,0.1-0.5,0.1-0.7L88.3,5.1c0-4.5-2.4-5.1-3.8-5.1H19.3h-0.1
	c-4.4,1-5,4.3-5,7.8V55c0,0.2,0,0.3,0,0.5H5.7c-3.4,0-5.7,2.9-5.7,7.3v41.6h0.1v14.9c0,4.4,2.7,7.9,6.2,7.9h33.3l-0.1-0.6
	c-0.1-0.9-0.2-1.9-0.2-2.9v-0.5l-33-0.2c-1.1,0-2.2-2.1-2.2-3.7V62.9c0-1.5,1-2.9,2-2.9H19h0.1h61.4v22.2l4-3.7V60.1h7.4
	c1.2,0,2,1.2,2,2.9v7.5l4-3.8L98.1,62.9z M19,6.3c0-0.2,0-1.3,1.3-1.9l45.4-0.1l0.2,50.9H19.2h-0.1C19,55.2,19,55.1,19,55
	C19,55,19,6.3,19,6.3z M83.5,52.7c0,1.6-0.3,2.6-0.8,2.6H70.8l-0.1-51h11.9c0.5,0,0.9,0.1,0.9,0.8C83.5,5.1,83.5,52.7,83.5,52.7z"/>
<path class="st2" d="M60.8,66.3l-5.5,9.1l5.2,9.2l10.8,0.1l5.5-9.1l-5.3-9.2L60.8,66.3z M66.2,81.6c-3.4,0-6.1-2.8-6.1-6.1
	c0-3.4,2.8-6.1,6.1-6.1c3.4,0,6.1,2.8,6.1,6.1C72.2,78.9,69.6,81.6,66.2,81.6z"/>
<path class="st2" d="M41.3,23.1l5.5,2.2l2.3,2.2l-9.2-2.9l-2.4,2.5l11.2,3.8l1.8-1.9c0,0,2.7,2.4,5.3,5.2c4.2-8.1-1.5-14.9-1.5-14.9
	L52,21.6l-2.2-2.2c0,0,1.5-1.3,2.4-2.4c-7.5-5.7-15.7-1.3-15.7-1.3l6.3,5.8L41.3,23.1z"/>
<polygon class="st2" points="47.1,32.4 35.9,28.7 33.9,30.9 44.8,34.9 "/>
<polygon class="st2" points="43.3,36.3 32.4,32.3 30.5,34.4 41.4,38.4 "/>
<polygon class="st2" points="39.8,40.1 28.8,36.1 36.7,43.4 "/>
</svg>
