<?xml version="1.0" encoding="utf-8"?>
<!-- Generator: Adobe Illustrator 24.0.1, SVG Export Plug-In . SVG Version: 6.00 Build 0)  -->
<svg version="1.1" id="Layer_1" xmlns="http://www.w3.org/2000/svg" xmlns:xlink="http://www.w3.org/1999/xlink" x="0px" y="0px"
	 viewBox="0 0 140 140" style="enable-background:new 0 0 140 140;" xml:space="preserve">
<style type="text/css">
	.st0{fill:url(#SVGID_1_);}
	.st1{fill:url(#SVGID_2_);}
	.st2{fill:#6C6D6D;}
	.st3{enable-background:new    ;}
	.st4{fill:#FFFFFF;}
</style>
<g>
	
		<radialGradient id="SVGID_1_" cx="38.1652" cy="1044.1591" r="18.928" gradientTransform="matrix(1 0 0 1 0 -938)" gradientUnits="userSpaceOnUse">
		<stop  offset="0" style="stop-color:#738AA3"/>
		<stop  offset="1" style="stop-color:#2C3341"/>
	</radialGradient>
	<path class="st0" d="M38.1,87.2c-10.4,0-19,8.5-19,19c0,10.4,8.5,19,19,19c10.4,0,19-8.5,19-19C57.1,95.8,48.6,87.2,38.1,87.2z"/>
	
		<radialGradient id="SVGID_2_" cx="38.1" cy="1044.2" r="30.6621" gradientTransform="matrix(1 0 0 1 0 -938)" gradientUnits="userSpaceOnUse">
		<stop  offset="0" style="stop-color:#738AA3"/>
		<stop  offset="1" style="stop-color:#2C3341"/>
	</radialGradient>
	<path class="st1" d="M38.1,75.5c-16.9,0-30.7,13.7-30.7,30.7s13.7,30.7,30.7,30.7s30.7-13.7,30.7-30.7S55.1,75.5,38.1,75.5z
		 M38.1,129c-12.6,0-22.8-10.3-22.8-22.8c0-12.6,10.3-22.8,22.8-22.8c12.6,0,22.8,10.3,22.8,22.8C61,118.8,50.8,129,38.1,129z"/>
</g>
<path class="st2" d="M108.9,38.3c0.8,1.6,2.4,2.6,4.2,2.9c1.8,0.4,3.6-0.2,4.9-1.3l20-17.4c1.2-1.1,1.9-2.5,2-4.1s-0.4-3.1-1.4-4.3
	c-2.1-2.4-5.8-2.7-8.2-0.6l-14.6,12.6l-10-17.3c-0.8-1.6-2.5-2.7-4.3-3c-0.2,0-0.6,0-0.8,0c-1.6,0-3,0.6-4.2,1.7l-8,8
	C78.9,7.7,66.9,3.2,54.2,3.2C24.4,3.2,0.1,27.5,0.1,57.4c0,9.7,2.6,19.2,7.5,27.4c0.4,0.6,1.1,1,1.7,1c0.4,0,0.7-0.1,1-0.2
	c1-0.6,1.2-1.8,0.7-2.6c-4.6-7.9-7-16.6-7-25.6C4,29.7,26.6,7.1,54.2,7.1c11.7,0,22.7,4.1,31.5,11.2L83,21.1c-1.3-1.1-2.7-2-4.2-3
	c-7.4-4.7-15.9-7-24.6-7C28.7,11,7.9,31.8,7.9,57.4c0,7.5,1.8,14.9,5.3,21.6c0.4,0.7,1.1,1.1,1.8,1.1c0.4,0,0.6-0.1,1-0.2
	c1-0.5,1.3-1.7,0.8-2.6c-3.2-6.1-4.9-12.9-4.9-19.7c0-23.4,19-42.4,42.4-42.4c9.7,0,18.7,3.2,26,8.8L51.8,52.1v-4.2
	c0-3.2-2.6-5.8-5.8-5.8s-5.8,2.6-5.8,5.8v18.3c0,3.2,2.6,5.8,5.8,5.8h18.3c3.2,0,5.8-2.6,5.8-5.8c0-3.2-2.6-5.8-5.8-5.8h-4.1
	l28.3-28.2c1.1,1.6,2.1,3.1,3.1,4.8c1.9,3.6,3.6,8.1,4.4,12.2c0.5,2.6,0.8,5.4,0.8,8.1c0,16.3-9.2,31-23.9,38.2
	c-1,0.5-1.4,1.7-1,2.6c0.4,0.7,1.1,1.1,1.8,1.1c0.2,0,0.6-0.1,0.8-0.2c7.8-3.7,14.2-9.5,18.9-16.8c4.8-7.4,7.3-16,7.3-24.9
	c0-3.8-0.5-7.6-1.4-11.3c-1-4.1-2.9-8.2-4.8-11.8c-1-1.7-2-3.2-3.2-4.8l2.9-2.7c1.2,1.4,2.3,3,3.2,4.7c1.9,3.2,3.8,7,4.9,10.6
	c0.1,0.2,0.1,0.6,0.2,0.8c1.4,4.7,2.1,9.5,2.1,14.6c0,20.2-11.9,38.3-30.6,46.2c-1,0.5-1.4,1.6-1.1,2.6c0.4,0.7,1.1,1.2,1.8,1.2
	c0.2,0,0.5,0,0.7-0.1c1.7-0.7,3.3-1.6,4.9-2.4l4.2,4.2c1.4,1.4,3.2,2.1,5.1,2.1c1.8,0,3.7-0.7,5.1-2.1l0.5-0.5l26.3,26.3
	c1.3,1.3,3.1,2.1,5.1,2.1c1.9,0,3.7-0.7,5.1-2.1c1.3-1.3,2.1-3.1,2.1-5.1c0-1.9-0.7-3.7-2.1-5.1l-26-26.7l0.5-0.5
	c2.7-2.7,2.7-7.4,0-10.1l-4.2-4.2c4.3-7.9,6.7-16.8,6.7-26.3c0-6.1-1-11.9-3-17.7c-1.2-3.2-3.7-8.4-5.4-11.2c-1-1.6-2.1-3.1-3.3-4.7
	l2.6-2.6L108.9,38.3z M128.8,127.4c0.6,0.6,1,1.4,1,2.3s-0.4,1.7-1,2.3s-1.4,1-2.3,1c-0.8,0-1.7-0.4-2.3-1L98,105.7l4.7-4.7
	L128.8,127.4z M103,90.4c1.3,1.3,1.3,3.3,0,4.7l-11.1,11.1c-1.3,1.3-3.3,1.3-4.7,0l-3.5-3.5c6.3-4.2,11.7-9.5,15.8-15.6L103,90.4z
	 M92.7,22.4l-1.2,1.2l0,0l-3.9,3.9L86,29.1l0,0L54,60.9c-0.6,0.6-0.7,1.4-0.5,2.1c0.4,0.7,1.1,1.2,1.8,1.2h8.8
	c1.1,0,1.9,0.8,1.9,1.9S65.2,68,64.1,68H45.9c-1.1,0-1.9-0.8-1.9-1.9V47.9c0-1.1,0.8-1.9,1.9-1.9s1.9,0.8,1.9,1.9v9
	c0,0.8,0.5,1.6,1.2,1.8c0.7,0.4,1.6,0.1,2.1-0.5l39.7-39.5l0.6-0.6l0,0l7.8-7.8c0.5-0.5,1.1-0.6,1.7-0.6c0.6,0.1,1.2,0.5,1.4,1
	l11,19.6c0.2,0.5,0.8,0.8,1.4,1c0.1,0,0.2,0,0.4,0c0.5,0,1-0.1,1.3-0.5l16.3-14.3c0.8-0.7,2-0.6,2.7,0.2c0.4,0.4,0.5,1,0.5,1.4
	c0,0.5-0.2,1-0.7,1.3l-19.9,17.5c-0.5,0.4-1.1,0.6-1.7,0.5s-1.1-0.5-1.4-1l-10.9-19.2c-0.4-0.5-0.8-1-1.4-1
	c-0.6-0.1-1.2,0.1-1.7,0.6L92.7,22.4z"/>
<g class="st3">
	<path class="st4" d="M44,110v3.8h-6.8v4.7h-5.1v-4.7h-1.7V110h1.7v-2.1h-1.7v-4h1.7V93.2h7.3c2.7,0,4.7,0.2,5.9,0.7
		c1.2,0.4,2.2,1.3,2.9,2.4c0.7,1.1,1.1,2.5,1.1,4c0,1.2-0.2,2.3-0.5,3.1c-0.3,0.9-0.7,1.6-1.2,2.1c-0.5,0.6-1.2,1-1.9,1.3
		c-0.7,0.3-1.5,0.6-2.4,0.7c-0.8,0.2-1.7,0.2-2.7,0.3c-0.9,0-1.9,0.1-2.8,0.1h-0.7v2.1H44z M37.2,103.9h0.3c2.4,0,4-0.1,4.6-0.3
		c0.6-0.2,1.1-0.6,1.4-1.1c0.3-0.5,0.5-1.1,0.5-1.9c0-0.9-0.2-1.6-0.7-2.1c-0.4-0.5-1.1-0.8-1.9-1c-0.2,0-0.6,0-1.2-0.1
		c-0.6,0-1.4,0-2.5,0h-0.5V103.9z"/>
</g>
</svg>
