<?xml version="1.0" encoding="utf-8"?>
<!-- Generator: Adobe Illustrator 24.0.1, SVG Export Plug-In . SVG Version: 6.00 Build 0)  -->
<svg version="1.1" id="Layer_1" xmlns="http://www.w3.org/2000/svg" xmlns:xlink="http://www.w3.org/1999/xlink" x="0px" y="0px"
	 viewBox="0 0 140 140" style="enable-background:new 0 0 140 140;" xml:space="preserve">
<style type="text/css">
	.st0{fill:#6C6D6D;}
	.st1{fill:url(#SVGID_1_);}
	.st2{fill:url(#SVGID_2_);}
	.st3{fill:url(#SVGID_3_);}
	.st4{fill:url(#SVGID_4_);}
	.st5{fill:url(#SVGID_5_);}
	.st6{fill:url(#SVGID_6_);}
	.st7{fill:url(#SVGID_7_);}
	.st8{fill:url(#SVGID_8_);}
</style>
<g>
	<path class="st0" d="M117.2,61.4v3.2c0,1.3,0.8,2.4,1.8,2.4c1,0,1.8-1.1,1.8-2.4v-3.2c0-1.3-0.8-2.4-1.8-2.4
		C118,59,117.2,60,117.2,61.4z"/>
	<path class="st0" d="M138.2,47.6h-4.7V29c0-4.9-3-8.9-6.6-8.9H23.7c-3.6,0-6.6,4-6.6,8.9v26.3h3.6V29c0-2.2,1.3-4.1,3-4.1h12.6
		v30.4h3.6V24.9h87c1.7,0,3,1.8,3,4.1v18.6H119c-6.3,0-11.4,6.9-11.4,15.4s5.1,15.4,11.4,15.4h10.9V97c0,2.2-1.3,4.1-3,4.1h-61v4.9
		h61c3.6,0,6.6-4,6.6-8.9V78.4h4.7c1,0,1.8-1.1,1.8-2.4V50C140,48.7,139.2,47.6,138.2,47.6z M136.4,73.5H119
		c-4.3,0-7.8-4.7-7.8-10.5c0-5.8,3.5-10.5,7.8-10.5h17.4V73.5z"/>
	<radialGradient id="SVGID_1_" cx="43.5517" cy="113.0689" r="14.0173" gradientUnits="userSpaceOnUse">
		<stop  offset="0" style="stop-color:#738AA3"/>
		<stop  offset="1" style="stop-color:#2C3341"/>
	</radialGradient>
	<path class="st1" d="M25,106.2v4.7c0,5.1,8,9,18.6,9s18.6-3.9,18.6-9v-4.7c-3.8,3.3-10.4,5.3-18.6,5.3S28.8,109.5,25,106.2z"/>
	<radialGradient id="SVGID_2_" cx="43.5517" cy="101.0712" r="14.0173" gradientUnits="userSpaceOnUse">
		<stop  offset="0" style="stop-color:#738AA3"/>
		<stop  offset="1" style="stop-color:#2C3341"/>
	</radialGradient>
	<path class="st2" d="M25,94.2v4.7c0,5.1,8,9,18.6,9s18.6-3.9,18.6-9v-4.7c-3.8,3.3-10.4,5.3-18.6,5.3S28.8,97.5,25,94.2z"/>
	<radialGradient id="SVGID_3_" cx="43.5517" cy="89.0734" r="14.0173" gradientUnits="userSpaceOnUse">
		<stop  offset="0" style="stop-color:#738AA3"/>
		<stop  offset="1" style="stop-color:#2C3341"/>
	</radialGradient>
	<path class="st3" d="M25,82.2v4.7c0,5.1,8,9,18.6,9s18.6-3.9,18.6-9v-4.7c-3.8,3.3-10.4,5.3-18.6,5.3S28.8,85.5,25,82.2z"/>
	<g>
		<radialGradient id="SVGID_4_" cx="17.3088" cy="68.8434" r="13.7942" gradientUnits="userSpaceOnUse">
			<stop  offset="0" style="stop-color:#738AA3"/>
			<stop  offset="1" style="stop-color:#2C3341"/>
		</radialGradient>
		<path class="st4" d="M18.6,77.8c1.2,0,2.4-0.1,3.6-0.2v-1.6l0.1,0.1c-0.1-0.4-0.1-0.8-0.1-1.3c0-5,4.9-9,12.4-10.8
			c-3.2-2.6-9-4.3-16-4.3C8,59.8,0,63.7,0,68.8C0,74,8,77.8,18.6,77.8z"/>
		<radialGradient id="SVGID_5_" cx="11.1462" cy="82.9733" r="9.2569" gradientUnits="userSpaceOnUse">
			<stop  offset="0" style="stop-color:#738AA3"/>
			<stop  offset="1" style="stop-color:#2C3341"/>
		</radialGradient>
		<path class="st5" d="M18.6,89.8c1.2,0,2.4-0.1,3.6-0.2v-1.6l0.1,0.1c-0.1-0.4-0.1-0.8-0.1-1.3v-5.6c-1.2,0.1-2.4,0.1-3.6,0.1
			c-8.2,0-14.8-2-18.6-5.3v4.7C0,86,8,89.8,18.6,89.8z"/>
		<radialGradient id="SVGID_6_" cx="11.3413" cy="106.9687" r="9.3746" gradientUnits="userSpaceOnUse">
			<stop  offset="0" style="stop-color:#738AA3"/>
			<stop  offset="1" style="stop-color:#2C3341"/>
		</radialGradient>
		<path class="st6" d="M22.2,110.9v-5.6c-1.2,0.1-2.4,0.1-3.6,0.1c-8.2,0-14.8-2-18.6-5.3v4.7c0,5.1,8,9,18.6,9
			c1.4,0,2.8-0.1,4.1-0.2C22.4,112.8,22.2,111.9,22.2,110.9z"/>
		<radialGradient id="SVGID_7_" cx="11.1462" cy="94.971" r="9.2569" gradientUnits="userSpaceOnUse">
			<stop  offset="0" style="stop-color:#738AA3"/>
			<stop  offset="1" style="stop-color:#2C3341"/>
		</radialGradient>
		<path class="st7" d="M18.6,101.8c1.2,0,2.4-0.1,3.6-0.2v-1.6l0.1,0.1c-0.1-0.4-0.1-0.8-0.1-1.3v-5.6c-1.2,0.1-2.4,0.1-3.6,0.1
			c-8.2,0-14.8-2-18.6-5.3v4.7C0,98,8,101.8,18.6,101.8z"/>
	</g>
	<radialGradient id="SVGID_8_" cx="43.5517" cy="74.9436" r="14.6082" gradientUnits="userSpaceOnUse">
		<stop  offset="0" style="stop-color:#738AA3"/>
		<stop  offset="1" style="stop-color:#2C3341"/>
	</radialGradient>
	<ellipse class="st8" cx="43.6" cy="74.9" rx="18.6" ry="9"/>
</g>
</svg>
