<?xml version="1.0" encoding="utf-8"?>
<!-- Generator: Adobe Illustrator 24.0.1, SVG Export Plug-In . SVG Version: 6.00 Build 0)  -->
<svg version="1.1" id="Layer_1" xmlns="http://www.w3.org/2000/svg" xmlns:xlink="http://www.w3.org/1999/xlink" x="0px" y="0px"
	 viewBox="0 0 140 140" style="enable-background:new 0 0 140 140;" xml:space="preserve">
<style type="text/css">
	.st0{fill:#6C6D6D;}
	.st1{fill:url(#SVGID_1_);}
	.st2{fill:url(#SVGID_2_);}
</style>
<g>
	<path class="st0" d="M139.8,100.9l-15.3-40c-0.4-1-1.6-1.6-2.6-1.2l-16.1,5.8c-0.5,0.2-0.9,0.6-1.2,1.1c-0.2,0.5-0.2,1.1,0,1.6
		l1.4,3.5L95,77l-18.1-3.4c-3.5-0.7-7.2,0.2-10.1,2.3l-3.2,2.4l-2.1-1.5c-3.2-2.3-7.5-3-11.3-1.9l-6.9,2.1l-9.1-5.4l1.3-3.3
		c0.2-0.5,0.2-1.1,0-1.6c-0.2-0.5-0.7-0.9-1.2-1.1l-16.1-5.8c-1-0.4-2.2,0.2-2.6,1.2l-15.3,40c-0.4,1,0.1,2.2,1.1,2.6l15.3,6.6
		c0.3,0.1,0.5,0.2,0.8,0.2c0.3,0,0.5-0.1,0.8-0.2c0.5-0.2,0.9-0.6,1.1-1.1l1.5-3.9l12.7,7.2c-1.7,2.5-1.5,6,0.7,8.2c0,0,0,0,0,0
		c1.3,1.3,2.9,1.9,4.6,1.9c0.1,0,0.1,0,0.2,0c0.1,1.5,0.8,2.9,1.9,4c1.3,1.3,2.9,1.9,4.6,1.9c0.1,0,0.1,0,0.2,0
		c0.1,1.5,0.7,2.9,1.9,4c0,0,0,0,0,0c1.3,1.3,2.9,1.9,4.6,1.9c0.1,0,0.1,0,0.2,0c0.1,1.5,0.8,2.9,1.9,4c1.2,1.2,2.8,1.9,4.6,1.9
		c1.7,0,3.3-0.7,4.6-1.9l2.4-2.4l3.3,2.5c1.3,1,2.8,1.4,4.3,1.4c1.9,0,3.7-0.7,5.1-2.1l0.2-0.2c1-1.1,1.7-2.4,2-3.9
		c2.4,0.7,5.2,0.1,7.1-1.8l0.2-0.2c1.2-1.2,1.9-2.7,2.1-4.3c2.5,0.7,5.2,0.1,7.1-1.8l0.1-0.1c1.1-1.1,1.8-2.6,2-4.1
		c2.4,0.6,4.9-0.1,6.8-1.9c1.5-1.5,2.3-3.6,2.1-5.7c0-0.4-0.1-0.9-0.2-1.3l11.9-5.8l1.1,2.8c0.2,0.5,0.6,0.9,1.1,1.1
		c0.3,0.1,0.5,0.2,0.8,0.2c0.3,0,0.6-0.1,0.8-0.2l15.3-6.6C139.7,103.1,140.2,102,139.8,100.9z M16.2,105.6l-11.6-5l13.9-36.3
		l3.4,1.2l-6.6,18.6c-0.4,1.1,0.2,2.2,1.3,2.6c0.2,0.1,0.5,0.1,0.7,0.1c0.8,0,1.6-0.5,1.9-1.4l6.5-18.6l5,1.8L16.2,105.6z
		 M37.1,117.6c-0.9-0.9-0.9-2.4,0-3.3l4.4-4.4c0.9-0.9,2.4-0.9,3.3,0c0.4,0.4,0.7,1,0.7,1.7s-0.2,1.2-0.7,1.7l-4.4,4.4
		C39.6,118.5,38.1,118.5,37.1,117.6z M43.7,123.5c-0.4-0.4-0.7-1-0.7-1.7s0.2-1.2,0.7-1.7l0,0l4-4c0.1-0.1,0.2-0.2,0.3-0.4l0,0
		c0.9-0.9,2.4-0.9,3.3,0c0.4,0.4,0.7,1,0.7,1.7c0,0.6-0.2,1.2-0.7,1.7l0,0l-4,4c-0.1,0.1-0.2,0.2-0.3,0.4l0,0
		c-0.4,0.4-1,0.7-1.7,0.7S44.2,123.9,43.7,123.5z M50.3,129.3c-0.9-0.9-0.9-2.4,0-3.3l4.4-4.4c0.4-0.4,1-0.7,1.7-0.7
		s1.2,0.2,1.7,0.7c0.4,0.4,0.7,1,0.7,1.7s-0.2,1.2-0.7,1.7l-4.4,4.4C52.7,130.2,51.2,130.2,50.3,129.3z M60.2,135.2
		c-0.4,0.4-1,0.7-1.7,0.7c-0.6,0-1.2-0.2-1.7-0.7c-0.9-0.9-0.9-2.4,0-3.3l0,0l4-4c0.1-0.1,0.2-0.2,0.3-0.4l0,0
		c0.4-0.4,1-0.7,1.7-0.7c0.6,0,1.2,0.2,1.7,0.7c0.4,0.4,0.7,1,0.7,1.7c0,0.6-0.2,1.2-0.7,1.7L60.2,135.2z M103,116.2
		c-1.1,1.1-2.9,1.2-4.2,0.2l-1.6-1.3c-0.1-0.2-0.2-0.3-0.4-0.4l-3.7-3c-0.9-0.7-2.2-0.6-2.9,0.3c-0.7,0.9-0.6,2.2,0.3,2.9l3.2,2.6
		c0.1,0.1,0.2,0.2,0.3,0.3c0.6,0.6,1,1.4,1,2.2c0,0.9-0.3,1.7-0.9,2.3l-0.1,0.1c-1.1,1.1-2.8,1.2-4,0.3l-3.2-2.3c0,0,0,0,0,0
		l-1.2-0.9c-0.9-0.7-2.2-0.4-2.9,0.5c-0.7,0.9-0.4,2.2,0.5,2.9l1.2,0.9c0.7,0.5,1.2,1.4,1.3,2.3c0.1,0.9-0.3,1.8-0.9,2.4l-0.2,0.2
		c-1.2,1.2-3,1.2-4.2,0.1l-3.4-3c-0.8-0.7-2.1-0.7-2.9,0.2c-0.7,0.8-0.7,2.1,0.2,2.9l1.2,1c0.6,0.6,1,1.4,1,2.2
		c0,0.9-0.3,1.7-0.9,2.3l-0.2,0.2c-1.1,1.1-2.8,1.2-4.1,0.3l-2.9-2.2c0.7-1,1-2.2,1-3.5c0-1.7-0.7-3.3-1.9-4.6
		c-1.2-1.2-2.8-1.9-4.6-1.9c-0.1,0-0.1,0-0.2,0c-0.1-1.5-0.8-2.9-1.9-4c-1.2-1.2-2.8-1.9-4.6-1.9c-0.1,0-0.1,0-0.2,0
		c-0.1-1.5-0.7-2.9-1.9-4c-1.3-1.3-3-1.9-4.7-1.9c-0.1-1.5-0.8-2.9-1.9-4c-2.5-2.5-6.6-2.5-9.1,0l-2.2,2.2l-14.1-7.9l10.2-25.9
		l9.3,5.5c0.5,0.3,1.1,0.4,1.6,0.2l7.8-2.3c2.6-0.8,5.5-0.3,7.7,1.3l1.1,0.8l-11,8.1c-1.7,1.2-2.6,3.1-2.6,5.2c0,2.1,0.9,4,2.6,5.2
		c3.1,2.3,7.4,2.5,10.7,0.5l8.6-5.4c1,2,2.9,4.7,6.1,6.4c3.8,1.9,8.3,2,13.6,0.1l14.5,10.4c0.7,0.5,1.2,1.4,1.3,2.3
		C103.9,114.6,103.6,115.5,103,116.2z M105.6,108.6l-16-11.5c-0.6-0.4-1.3-0.5-1.9-0.2c-4.6,1.8-8.4,1.9-11.3,0.4
		c-3.9-2-5-6.3-5.1-6.3c-0.2-0.6-0.6-1.2-1.2-1.4c-0.6-0.2-1.3-0.2-1.8,0.2l-10.7,6.7c-1.9,1.2-4.3,1.1-6-0.3c-0.6-0.5-1-1.2-1-1.9
		c0-0.8,0.4-1.5,1-1.9l17.6-13.1c2-1.5,4.5-2.1,6.9-1.6l18.7,3.5c0.4,0.1,0.9,0,1.3-0.2l11.4-5.4l10.6,26.9L105.6,108.6z
		 M123.8,105.6l-14.6-36.9l5-1.8l6.5,18.6c0.3,0.8,1.1,1.4,1.9,1.4c0.2,0,0.5,0,0.7-0.1c1.1-0.4,1.6-1.5,1.3-2.6L118,65.5l3.4-1.2
		l13.9,36.3L123.8,105.6z"/>
	<g>
		<radialGradient id="SVGID_1_" cx="70" cy="32.1402" r="19.8183" gradientUnits="userSpaceOnUse">
			<stop  offset="0" style="stop-color:#7389A1"/>
			<stop  offset="1" style="stop-color:#2C3341"/>
		</radialGradient>
		<path class="st1" d="M70,12.3c-10.9,0-19.8,8.9-19.8,19.8C50.2,43.1,59.1,52,70,52c10.9,0,19.8-8.9,19.8-19.8
			C89.8,21.2,80.9,12.3,70,12.3z M82.4,26l-14,15c-0.4,0.4-0.9,0.7-1.5,0.7c-0.6,0-1.1-0.2-1.5-0.7l-7.8-8.4
			c-0.8-0.8-0.7-2.1,0.1-2.9c0.8-0.8,2.1-0.7,2.9,0.1l6.3,6.8l12.5-13.4c0.8-0.8,2.1-0.9,2.9-0.1C83.2,23.9,83.2,25.2,82.4,26z"/>
		<radialGradient id="SVGID_2_" cx="70" cy="32.1402" r="32.1193" gradientUnits="userSpaceOnUse">
			<stop  offset="0" style="stop-color:#7389A1"/>
			<stop  offset="1" style="stop-color:#2C3341"/>
		</radialGradient>
		<path class="st2" d="M70,0C52.3,0,37.9,14.4,37.9,32.1c0,17.7,14.4,32.1,32.1,32.1c17.7,0,32.1-14.4,32.1-32.1
			C102.1,14.4,87.7,0,70,0z M70,56.1c-13.2,0-23.9-10.7-23.9-23.9S56.8,8.2,70,8.2c13.2,0,23.9,10.7,23.9,23.9S83.2,56.1,70,56.1z"
			/>
	</g>
</g>
</svg>
