<?xml version="1.0" encoding="utf-8"?>
<!-- Generator: Adobe Illustrator 24.0.1, SVG Export Plug-In . SVG Version: 6.00 Build 0)  -->
<svg version="1.1" id="Layer_1" xmlns="http://www.w3.org/2000/svg" xmlns:xlink="http://www.w3.org/1999/xlink" x="0px" y="0px"
	 viewBox="0 0 140 140" style="enable-background:new 0 0 140 140;" xml:space="preserve">
<style type="text/css">
	.st0{fill:#6C6D6D;}
	.st1{fill:url(#SVGID_1_);}
	.st2{fill:url(#SVGID_2_);}
	.st3{enable-background:new    ;}
	.st4{fill:#FFFFFF;}
</style>
<g>
	<g>
		<path class="st0" d="M31.4,40.4c0-1.2-0.9-2-2-2H13c-1.2,0-2,0.9-2,2v16.4c0,1.2,0.9,2,2,2h16.4c1.2,0,2-0.9,2-2V40.4z M27.4,54.7
			H15V42.4h12.3v12.3H27.4z"/>
		<path class="st0" d="M60.6,40.4c0-1.2-0.9-2-2-2H42.2c-1.2,0-2,0.9-2,2v16.4c0,1.2,0.9,2,2,2h16.4c1.2,0,2-0.9,2-2
			C60.6,56.8,60.6,40.4,60.6,40.4z M56.6,54.7H44.2V42.4h12.3L56.6,54.7L56.6,54.7z"/>
		<path class="st0" d="M87.7,38.3H71.3c-1.2,0-2,0.9-2,2v16.4c0,1.2,0.9,2,2,2h16.4c1.2,0,2-0.9,2-2V40.4
			C89.8,39.2,88.9,38.3,87.7,38.3z M85.7,54.7H73.4V42.4h12.3C85.7,42.4,85.7,54.7,85.7,54.7z"/>
		<path class="st0" d="M116.8,38.3h-16.4c-1.2,0-2,0.9-2,2v16.4c0,1.2,0.9,2,2,2h16.4c1.2,0,2-0.9,2-2V40.4
			C119,39.2,118,38.3,116.8,38.3z M114.8,54.7h-12.3V42.4h12.3V54.7z"/>
		<path class="st0" d="M31.4,64.9c0-1.2-0.9-2-2-2H13c-1.2,0-2,0.9-2,2v16.4c0,1.2,0.9,2,2,2h16.4c1.2,0,2-0.9,2-2V64.9z M27.4,79.3
			H15V67.1h12.3v12.3L27.4,79.3L27.4,79.3z"/>
		<path class="st0" d="M60.6,64.9c0-1.2-0.9-2-2-2H42.2c-1.2,0-2,0.9-2,2v16.4c0,1.2,0.9,2,2,2h16.4c1.2,0,2-0.9,2-2V64.9z
			 M56.6,79.3H44.2V67.1h12.3L56.6,79.3L56.6,79.3L56.6,79.3z"/>
		<path class="st0" d="M29.4,87.5H13c-1.2,0-2,0.9-2,2v16.4c0,1.2,0.9,2,2,2h16.4c1.2,0,2-0.9,2-2V89.6
			C31.4,88.4,30.6,87.5,29.4,87.5z M27.4,103.9H15V91.6h12.3v12.3H27.4z"/>
		<path class="st0" d="M58.6,87.5H42.2c-1.2,0-2,0.9-2,2v16.4c0,1.2,0.9,2,2,2h16.4c1.2,0,2-0.9,2-2V89.6
			C60.6,88.4,59.7,87.5,58.6,87.5z M56.6,103.9H44.2V91.6h12.3L56.6,103.9L56.6,103.9z"/>
		<path class="st0" d="M122.4,11H119V6.2c0-3.4-2.7-6.1-6.1-6.1h-8.3c-3.4,0-6.1,2.7-6.1,6.1V11H75.2V6.2c0-3.4-2.7-6.1-6.1-6.1
			h-8.3c-3.4,0-6.1,2.7-6.1,6.1V11H31.4V6.2c0-3.4-2.7-6.1-6.1-6.1H17c-3.4,0-6.1,2.7-6.1,6.1V11H7.5C3.4,11,0,14.5,0,18.6V117
			c0,1.2,0.9,2,2,2h63.8c1.2,0,2-0.9,2-2c0-1.2-0.9-2-2-2H4.2V31.4h121.6V71c0,1.2,0.9,2,2,2c1.2,0,2-0.9,2-2V18.5
			C129.8,14.3,126.5,11,122.4,11z M102.6,6.2c0-1.2,0.9-2,2-2h8.3c1.2,0,2,0.9,2,2V11h-12.3V6.2z M58.8,6.2c0-1.2,0.9-2,2-2h8.3
			c1.2,0,2,0.9,2,2V11H58.8V6.2z M15,6.2c0-1.2,0.9-2,2-2h8.3c1.2,0,2,0.9,2,2V11H15V6.2z M4.2,27.4v-8.8c0-1.9,1.5-3.4,3.4-3.4
			h114.8c1.9,0,3.4,1.5,3.4,3.4v8.8C125.8,27.4,4.2,27.4,4.2,27.4z"/>
		<path class="st0" d="M87.7,62.9H71.3c-1.2,0-2,0.9-2,2v16.4c0,1.2,0.9,2,2,2c1.2,0,2-0.9,2-2V67.1h14.4c1.2,0,2-0.9,2-2
			C89.8,63.9,88.9,62.9,87.7,62.9z"/>
	</g>
	<g>
		
			<radialGradient id="SVGID_1_" cx="105.2" cy="1043.1564" r="22.5055" gradientTransform="matrix(1 0 0 1 0 -938)" gradientUnits="userSpaceOnUse">
			<stop  offset="0" style="stop-color:#738AA3"/>
			<stop  offset="1" style="stop-color:#2C3341"/>
		</radialGradient>
		<path class="st1" d="M105.2,82.6c-12.4,0-22.5,10.1-22.5,22.5s10.1,22.5,22.5,22.5s22.5-10.1,22.5-22.5S117.5,82.6,105.2,82.6z"/>
		
			<radialGradient id="SVGID_2_" cx="105.2" cy="1043.1254" r="34.8152" gradientTransform="matrix(1 0 0 1 0 -938)" gradientUnits="userSpaceOnUse">
			<stop  offset="0" style="stop-color:#738AA3"/>
			<stop  offset="1" style="stop-color:#2C3341"/>
		</radialGradient>
		<path class="st2" d="M105.2,70.2C86,70.2,70.4,85.9,70.4,105c0,19.2,15.7,34.8,34.8,34.8S140,124.1,140,105S124.4,70.2,105.2,70.2
			z M105.2,131.8c-14.7,0-26.7-11.9-26.7-26.7s11.9-26.7,26.7-26.7s26.7,11.9,26.7,26.7C131.8,119.8,119.8,131.8,105.2,131.8z"/>
	</g>
</g>
<g class="st3">
	<path class="st4" d="M89.6,114.3v-2.8l2.5-2.3c4.3-3.9,6.4-6.1,6.5-8.4c0-1.6-1-2.9-3.2-2.9c-1.7,0-3.2,0.8-4.2,1.6l-1.3-3.3
		c1.5-1.1,3.8-2,6.5-2c4.5,0,6.9,2.6,6.9,6.2c0,3.3-2.4,5.9-5.2,8.5l-1.8,1.5v0.1h7.4v3.8H89.6z"/>
	<path class="st4" d="M114.6,114.3v-4.7h-8.7v-3l7.5-12h5.6v11.6h2.4v3.5h-2.4v4.7H114.6z M114.6,106.1v-4.4c0-1.2,0.1-2.4,0.2-3.7
		h-0.1c-0.6,1.3-1.2,2.4-1.8,3.7l-2.6,4.3v0.1H114.6z"/>
</g>
</svg>
