<?xml version="1.0" encoding="utf-8"?>
<!-- Generator: Adobe Illustrator 24.0.1, SVG Export Plug-In . SVG Version: 6.00 Build 0)  -->
<svg version="1.1" id="Layer_1" xmlns="http://www.w3.org/2000/svg" xmlns:xlink="http://www.w3.org/1999/xlink" x="0px" y="0px"
	 viewBox="0 0 140 140" style="enable-background:new 0 0 140 140;" xml:space="preserve">
<style type="text/css">
	.st0{fill:#6C6D6D;}
	.st1{fill:url(#SVGID_1_);}
	.st2{fill:url(#SVGID_2_);}
	.st3{fill:url(#SVGID_3_);}
	.st4{fill:url(#SVGID_4_);}
</style>
<g>
	<g>
		<path class="st0" d="M96.4,13.7h-4.8V8.9c0-5-4-8.8-8.8-8.8c-5,0-8.8,4-8.8,8.8v4.8H28.7V8.9c0-5-4-8.8-8.8-8.8
			c-5,0-8.8,4-8.8,8.8v4.8H6.2c-3.4,0-6.1,2.7-6.1,6.1v113.9c0,3.4,2.7,6.1,6.1,6.1h90.2c3.4,0,6.1-2.7,6.1-6.1V19.9
			C102.5,16.5,99.7,13.7,96.4,13.7z M77.9,8.9c0-2.6,2.1-4.8,4.8-4.8s4.8,2.1,4.8,4.8v4.8H78V8.9H77.9z M15,8.9
			c0-2.6,2.1-4.8,4.8-4.8c2.6,0,4.8,2.1,4.8,4.8v4.8h-9.6V8.9H15z M6.2,17.8h90.2c1.2,0,2,0.9,2,2V30H4.2V19.8
			C4.2,18.7,5,17.8,6.2,17.8z M96.4,135.8H6.2c-1.2,0-2-0.9-2-2V34.1h94.2v99.7C98.4,135,97.5,135.8,96.4,135.8z"/>
		<path class="st0" d="M26.7,41H13c-1.2,0-2,0.9-2,2v13.7c0,1.2,0.9,2,2,2h13.7c1.2,0,2-0.9,2-2V43.1C28.7,41.9,27.8,41,26.7,41z
			 M24.6,54.7H15v-9.6h9.6V54.7z"/>
		<path class="st0" d="M89.6,43.8h-41c-1.2,0-2,0.9-2,2c0,1.2,0.9,2,2,2h41c1.2,0,2-0.9,2-2C91.6,44.6,90.6,43.8,89.6,43.8z"/>
		<path class="st0" d="M37.6,47.8h2.7c1.2,0,2-0.9,2-2c0-1.2-0.9-2-2-2h-2.7c-1.2,0-2,0.9-2,2C35.6,47,36.5,47.8,37.6,47.8z"/>
		<path class="st0" d="M89.6,52H37.7c-1.2,0-2,0.9-2,2c0,1.1,0.9,2,2,2h51.9c1.2,0,2-0.9,2-2C91.6,52.9,90.6,52,89.6,52z"/>
		<path class="st0" d="M89.6,67.2h-41c-1.2,0-2,0.9-2,2c0,1.2,0.9,2,2,2h41c1.2,0,2-0.9,2-2C91.6,68.1,90.6,67.2,89.6,67.2z"/>
		<path class="st0" d="M37.6,71.3h2.7c1.2,0,2-0.9,2-2c0-1.2-0.9-2-2-2h-2.7c-1.2,0-2,0.9-2,2C35.6,70.4,36.5,71.3,37.6,71.3z"/>
		<path class="st0" d="M89.6,75.4H37.7c-1.2,0-2,0.9-2,2c0,1.2,0.9,2,2,2h51.9c1.2,0,2-0.9,2-2C91.6,76.3,90.6,75.4,89.6,75.4z"/>
		<path class="st0" d="M89.6,90.6h-41c-1.2,0-2,0.9-2,2c0,1.2,0.9,2,2,2h41c1.2,0,2-0.9,2-2C91.6,91.5,90.6,90.6,89.6,90.6z"/>
		<path class="st0" d="M37.6,94.7h2.7c1.2,0,2-0.9,2-2c0-1.2-0.9-2-2-2h-2.7c-1.2,0-2,0.9-2,2C35.6,93.8,36.5,94.7,37.6,94.7z"/>
		<path class="st0" d="M89.6,98.8H37.7c-1.2,0-2,0.9-2,2c0,1.2,0.9,2,2,2h51.9c1.2,0,2-0.9,2-2C91.6,99.7,90.6,98.8,89.6,98.8z"/>
		<path class="st0" d="M89.6,114h-41c-1.2,0-2,0.9-2,2c0,1.2,0.9,2,2,2h41c1.2,0,2-0.9,2-2C91.6,114.9,90.6,114,89.6,114z"/>
		<path class="st0" d="M37.6,118.1h2.7c1.2,0,2-0.9,2-2c0-1.2-0.9-2-2-2h-2.7c-1.2,0-2,0.9-2,2S36.5,118.1,37.6,118.1z"/>
		<path class="st0" d="M89.6,122.2H37.7c-1.2,0-2,0.9-2,2c0,1.2,0.9,2,2,2h51.9c1.2,0,2-0.9,2-2C91.6,123.1,90.6,122.2,89.6,122.2z"
			/>
		<path class="st0" d="M18,79.4c0.5,0,1.1-0.2,1.4-0.6l8.6-8.3c0.8-0.8,0.8-2.1,0.1-2.9c-0.8-0.8-2.1-0.8-2.9-0.1l-7.3,6.8l-3.5-3.4
			c-0.8-0.8-2.1-0.7-2.9,0.1c-0.8,0.8-0.7,2.1,0.1,2.9l5,4.7C17,79.3,17.5,79.4,18,79.4z"/>
		<path class="st0" d="M19.9,87.8c-5,0-8.8,4-8.8,8.8c0,5,4,8.8,8.8,8.8c5,0,8.8-4,8.8-8.8S24.7,87.8,19.9,87.8z M19.9,101.5
			c-2.6,0-4.8-2.1-4.8-4.8c0-2.6,2.1-4.8,4.8-4.8c2.6,0,4.8,2.1,4.8,4.8C24.6,99.4,22.5,101.5,19.9,101.5z"/>
		<path class="st0" d="M19.9,111.3c-5,0-8.8,4-8.8,8.8c0,5,4,8.8,8.8,8.8c5,0,8.8-4,8.8-8.8C28.7,115.3,24.7,111.3,19.9,111.3z
			 M19.9,125c-2.6,0-4.8-2.1-4.8-4.8c0-2.6,2.1-4.8,4.8-4.8c2.6,0,4.8,2.1,4.8,4.8C24.6,122.8,22.5,125,19.9,125z"/>
	</g>
	<g>
		
			<radialGradient id="SVGID_1_" cx="135.8515" cy="61.8568" r="31.2493" gradientTransform="matrix(1 0 0 -1 0 142)" gradientUnits="userSpaceOnUse">
			<stop  offset="0" style="stop-color:#738AA3"/>
			<stop  offset="1" style="stop-color:#2C3341"/>
		</radialGradient>
		<path class="st1" d="M131.8,122.5c2.8,0.2,5.5,0.7,8.3,1.7v-88h-8.3C131.8,36.1,131.8,122.5,131.8,122.5z"/>
		
			<radialGradient id="SVGID_2_" cx="129.7026" cy="118.1752" r="9.284" gradientTransform="matrix(1 0 0 -1 0 142)" gradientUnits="userSpaceOnUse">
			<stop  offset="0" style="stop-color:#738AA3"/>
			<stop  offset="1" style="stop-color:#2C3341"/>
		</radialGradient>
		<path class="st2" d="M133.8,15.6h-8.3c-3.4,0-6.1,2.7-6.1,6.1V32h20.5V21.8C139.9,18.3,137.2,15.6,133.8,15.6z"/>
		
			<radialGradient id="SVGID_3_" cx="129.7027" cy="8.7533" r="8.3801" gradientTransform="matrix(1 0 0 -1 0 142)" gradientUnits="userSpaceOnUse">
			<stop  offset="0" style="stop-color:#738AA3"/>
			<stop  offset="1" style="stop-color:#2C3341"/>
		</radialGradient>
		<path class="st3" d="M119.9,128.3l8.1,10.9c0.4,0.5,0.9,0.8,1.7,0.8c0.7,0,1.3-0.4,1.7-0.8l8.1-10.9
			C133.2,125.9,126.3,125.9,119.9,128.3z"/>
		
			<radialGradient id="SVGID_4_" cx="123.5539" cy="61.8568" r="31.2435" gradientTransform="matrix(1 0 0 -1 0 142)" gradientUnits="userSpaceOnUse">
			<stop  offset="0" style="stop-color:#738AA3"/>
			<stop  offset="1" style="stop-color:#2C3341"/>
		</radialGradient>
		<path class="st4" d="M127.7,36.1h-8.3v88c2.7-0.9,5.4-1.4,8.3-1.7V36.1z"/>
	</g>
</g>
</svg>
