<?xml version="1.0" encoding="utf-8"?>
<!-- Generator: Adobe Illustrator 24.0.1, SVG Export Plug-In . SVG Version: 6.00 Build 0)  -->
<svg version="1.1" id="Layer_1" xmlns="http://www.w3.org/2000/svg" xmlns:xlink="http://www.w3.org/1999/xlink" x="0px" y="0px"
	 viewBox="0 0 140 140" style="enable-background:new 0 0 140 140;" xml:space="preserve">
<style type="text/css">
	.st0{fill:url(#SVGID_1_);}
	.st1{fill:#6C6D6D;}
	.st2{fill:url(#SVGID_2_);}
	.st3{enable-background:new    ;}
	.st4{fill:#FFFFFF;}
</style>
<g>
	
		<radialGradient id="SVGID_1_" cx="75.2792" cy="95.7325" r="15.8599" gradientTransform="matrix(0.9861 0 0 -0.9861 -11.3848 134.4794)" gradientUnits="userSpaceOnUse">
		<stop  offset="0" style="stop-color:#738AA3"/>
		<stop  offset="1" style="stop-color:#2C3341"/>
	</radialGradient>
	<path class="st0" d="M62.8,24.4c-8.6,0-15.6,7-15.6,15.6s7,15.6,15.6,15.6s15.6-7,15.6-15.6C78.5,31.5,71.5,24.4,62.8,24.4z"/>
	<path class="st1" d="M124.3,52.8h-0.7V33c0-4.1-3.4-7.5-7.5-7.5h-5.5c-1.1,0-2.1,0.9-2.1,2.1v4.2l-2.5,1.3c-5.2,2.7-10.5,5.1-16,7
		c0,1.5-0.1,3-0.4,4.5c0.8-0.3,1.6-0.6,2.5-0.9v49.6c-13.3-4.8-27.4-7.5-41.6-7.7V64.4c-1.4-0.7-2.8-1.6-4.1-2.6v23.8H17.8V54.9
		c0-1.9,1.5-3.4,3.4-3.4H26v10.3c0,3.4,2.8,6.2,6.2,6.2s6.2-2.8,6.2-6.2v-9.9c-0.7-1.4-1.2-2.9-1.7-4.4H21.2c-4.1,0-7.5,3.4-7.5,7.5
		v0.7H7.5c-4.1,0-7.5,3.4-7.5,7.5V74c0,4.1,3.4,7.5,7.5,7.5h6.2v41.7c0,1.1,0.9,2.1,2.1,2.1h5.5c4.1,0,7.5-3.4,7.5-7.5v-17.1h3.4
		c4.1,0,7.5-3.4,7.5-7.5v-3.4h8.9c20,0,39.9,4.9,57.5,14.3l2.5,1.3v4.2c0,1.1,0.9,2.1,2.1,2.1h5.5c4.1,0,7.5-3.4,7.5-7.5V84.3h0.7
		c8.7,0,15.7-7.1,15.7-15.7C140,59.9,132.9,52.8,124.3,52.8z M30.1,51.4h4.1v10.3c0,1.1-0.9,2.1-2.1,2.1c-1.1,0-2.1-0.9-2.1-2.1
		L30.1,51.4L30.1,51.4z M13.7,77.4H7.5c-1.9,0-3.4-1.5-3.4-3.4V63.1c0-1.9,1.5-3.4,3.4-3.4h6.2V77.4z M24.6,117.7
		c0,1.9-1.5,3.4-3.4,3.4h-3.4V89.7h6.8C24.6,89.7,24.6,117.7,24.6,117.7z M35.5,93.1c0,1.9-1.5,3.4-3.4,3.4h-3.4v-6.8h6.8V93.1z
		 M108.6,100.7l-0.6-0.3c-3.8-2-7.7-3.8-11.7-5.4V42.1c4-1.6,7.9-3.4,11.7-5.4l0.6-0.3V100.7z M119.5,104.1c0,1.9-1.5,3.4-3.4,3.4
		h-3.4V29.6h3.4c1.9,0,3.4,1.5,3.4,3.4V104.1z M124.3,80.2h-0.7V56.9h0.7c6.4,0,11.6,5.2,11.6,11.6
		C135.9,74.9,130.7,80.2,124.3,80.2z"/>
	
		<radialGradient id="SVGID_2_" cx="75.2308" cy="95.7325" r="25.7281" gradientTransform="matrix(0.9861 0 0 -0.9861 -11.3848 134.4794)" gradientUnits="userSpaceOnUse">
		<stop  offset="0" style="stop-color:#738AA3"/>
		<stop  offset="1" style="stop-color:#2C3341"/>
	</radialGradient>
	<path class="st2" d="M62.8,14.7c-14,0-25.3,11.4-25.3,25.3c0,14,11.4,25.3,25.3,25.3c14,0,25.3-11.4,25.3-25.3
		C88.2,26.1,76.8,14.7,62.8,14.7z M62.8,59C52.4,59,44,50.5,44,40.1s8.5-18.9,18.9-18.9s18.9,8.5,18.9,18.9
		C81.7,50.5,73.3,59,62.8,59z"/>
</g>
<g class="st3">
	<path class="st4" d="M53.5,33l2.8-2.8c0.2-0.2,0.4-0.3,0.7-0.2c0.3,0,0.5,0.2,0.6,0.4l2.4,3.4c0.2,0.2,0.2,0.5,0.2,0.8
		c0,0.3-0.2,0.5-0.4,0.7l-2.1,2.1c1.2,1.7,2.5,3.2,4,4.7c1.5,1.5,3,2.8,4.7,4l2.1-2.1c0.2-0.2,0.4-0.3,0.7-0.3c0.3,0,0.6,0,0.8,0.2
		l3.4,2.4c0.2,0.2,0.4,0.4,0.4,0.7s0,0.5-0.2,0.7l-2.9,2.8c0,0-0.1,0-0.2,0c-0.1,0-0.2,0-0.5,0s-0.5-0.1-0.8-0.1
		c-0.3,0-0.7-0.1-1.1-0.3c-0.4-0.1-0.9-0.3-1.4-0.5c-0.5-0.2-1-0.4-1.6-0.7c-0.6-0.3-1.2-0.7-1.8-1.1c-0.6-0.4-1.2-0.9-1.9-1.5
		c-0.7-0.6-1.4-1.2-2.1-1.9c-0.9-0.9-1.6-1.7-2.3-2.6c-0.7-0.9-1.2-1.7-1.7-2.4s-0.8-1.4-1.1-2.1c-0.3-0.7-0.5-1.3-0.6-1.8
		s-0.2-0.9-0.3-1.3c-0.1-0.4-0.1-0.7-0.1-0.8L53.5,33z"/>
</g>
</svg>
