<?xml version="1.0" encoding="utf-8"?>
<!-- Generator: Adobe Illustrator 24.0.1, SVG Export Plug-In . SVG Version: 6.00 Build 0)  -->
<svg version="1.1" id="Layer_1" xmlns="http://www.w3.org/2000/svg" xmlns:xlink="http://www.w3.org/1999/xlink" x="0px" y="0px"
	 viewBox="0 0 810.4 565" style="enable-background:new 0 0 810.4 565;" xml:space="preserve">
<style type="text/css">
	.st0{fill:#FFFFFF;}
</style>
<path class="st0" d="M74.3,464.7c140,28.9,343.8,71.2,484,100.3h252.1V354.8L711.1,0h-123l128.7,461.7c4.1,14.6-4.8,24-19.6,21
	L129.6,361.5c-14.9-3.1-19.1-15.2-9.4-26.9L393.3,0H247.8L29.3,265.3c0-2,0-3.9,0-5.9c0-95.3,27.2-184.2,74.4-259.4H69.5
	C25.3,76.3,0,164.9,0,259.4C0,373.7,37,479.3,99.6,565h36.9C111.9,534.4,91,500.7,74.3,464.7z"/>
</svg>
