<?xml version="1.0" encoding="utf-8"?>
<!-- Generator: Adobe Illustrator 24.0.1, SVG Export Plug-In . SVG Version: 6.00 Build 0)  -->
<svg version="1.1" id="Layer_1" xmlns="http://www.w3.org/2000/svg" xmlns:xlink="http://www.w3.org/1999/xlink" x="0px" y="0px"
	 viewBox="0 0 820 664" style="enable-background:new 0 0 820 664;" xml:space="preserve">
<style type="text/css">
	.st0{fill:#393E4B;}
</style>
<path class="st0" d="M83.9,464.7c222.3,46,605.9,125.6,639.1,132.3c26.1,5.3,45.5,14.4,49.5,30.9c1.4,5.9,5.2,21,8.7,35.6h38.7
	V354.8L720.7,0h-123l128.7,461.7c4.1,14.6-4.8,24-19.6,21L139.2,361.5c-14.9-3.1-19.1-15.2-9.4-26.9L402.9,0H257.4L38.9,265.3
	c0-2,0-3.9,0-5.9c0-95.3,27.2-184.2,74.4-259.4H79C34.8,76.3,9.5,164.9,9.5,259.4c0,163.3,75.5,309.1,193.6,404.1h49.1
	C179.7,613.9,121.1,545.2,83.9,464.7z"/>
</svg>
