<?xml version="1.0" encoding="utf-8"?>
<!-- Generator: Adobe Illustrator 24.0.1, SVG Export Plug-In . SVG Version: 6.00 Build 0)  -->
<svg version="1.1" id="Layer_1" xmlns="http://www.w3.org/2000/svg" xmlns:xlink="http://www.w3.org/1999/xlink" x="0px" y="0px"
	 viewBox="0 0 246.9 184.4" style="enable-background:new 0 0 246.9 184.4;" xml:space="preserve">
<style type="text/css">
	.st0{fill:#808080;}
	.st1{fill:url(#SVGID_1_);}
	.st2{fill:#818181;}
	.st3{fill:#FFFFFF;}
</style>
<g>
	<g>
		<path d="M0.4,177.2l9.9-26.7h4.9l9.9,26.7h-3l-2.5-6.8H5.9l-2.5,6.8H0.4z M6.9,167.7h11.6l-5.3-14.4h-0.9L6.9,167.7z"/>
		<path d="M28.3,158.3H31v2.9c0.5-1.1,1.2-1.9,2.1-2.4c1-0.5,2.2-0.8,3.9-0.8c2.7,0,4.6,0.6,5.7,1.7c1.1,1.1,1.7,3,1.7,5.8v4.5
			c0,2.7-0.6,4.7-1.7,5.8c-1.1,1.1-3,1.7-5.7,1.7c-1.6,0-2.8-0.2-3.7-0.7c-0.9-0.5-1.6-1.2-2.2-2.2v9.9h-2.8V158.3z M31.1,169.3
			c0,2,0.5,3.4,1.4,4.3c0.9,0.9,2.4,1.3,4.4,1.3c1.8,0,3-0.3,3.6-1c0.6-0.7,0.9-2.2,0.9-4.6v-3.2c0-2.4-0.3-3.9-0.9-4.6
			c-0.6-0.7-1.8-1-3.6-1c-2,0-3.5,0.4-4.4,1.3c-0.9,0.9-1.4,2.3-1.4,4.3V169.3z"/>
		<path d="M56.2,177.4c-2.8,0-4.8-0.5-5.9-1.6c-1.1-1.1-1.7-3-1.7-5.8v-4.5c0-2.8,0.6-4.7,1.7-5.8c1.1-1.1,3.1-1.6,5.9-1.6h1.3
			c2.8,0,4.8,0.5,5.9,1.6c1.1,1.1,1.7,3,1.7,5.8v4.5c0,2.8-0.6,4.7-1.7,5.8c-1.1,1.1-3.1,1.6-5.9,1.6H56.2z M62.2,169.4v-3.2
			c0-2.4-0.3-3.9-0.9-4.5s-1.9-1-3.8-1h-1.3c-1.9,0-3.2,0.3-3.8,1c-0.6,0.6-0.9,2.2-0.9,4.6v3.2c0,2.4,0.3,3.9,0.9,4.6
			c0.6,0.6,1.9,1,3.8,1h1.3c1.9,0,3.2-0.3,3.8-1C61.9,173.3,62.2,171.7,62.2,169.4z"/>
		<path d="M70.1,177.2v-26.7h2.8v26.7H70.1z"/>
		<path d="M78.7,177.2v-26.7h2.8v26.7H78.7z"/>
		<path d="M94.1,177.4c-2.8,0-4.8-0.5-5.9-1.6c-1.1-1.1-1.7-3-1.7-5.8v-4.5c0-2.8,0.6-4.7,1.7-5.8c1.1-1.1,3.1-1.6,5.9-1.6h1.3
			c2.8,0,4.8,0.5,5.9,1.6c1.1,1.1,1.7,3,1.7,5.8v4.5c0,2.8-0.6,4.7-1.7,5.8c-1.1,1.1-3.1,1.6-5.9,1.6H94.1z M100.1,169.4v-3.2
			c0-2.4-0.3-3.9-0.9-4.5s-1.9-1-3.8-1h-1.3c-1.9,0-3.2,0.3-3.8,1c-0.6,0.6-0.9,2.2-0.9,4.6v3.2c0,2.4,0.3,3.9,0.9,4.6
			c0.6,0.6,1.9,1,3.8,1h1.3c1.9,0,3.2-0.3,3.8-1C99.8,173.3,100.1,171.7,100.1,169.4z"/>
		<path d="M120.7,177.2v-26.7h4.9l9.1,23.8l9-23.8h4.9v26.7h-2.9V153l-9.2,24.2h-3.6l-9.2-24.2v24.2H120.7z"/>
		<path d="M161.6,177.4c-2.8,0-4.8-0.5-5.9-1.6s-1.7-3-1.7-5.8v-4.5c0-2.8,0.6-4.7,1.7-5.8c1.1-1.1,3.1-1.6,5.9-1.6h1.3
			c2.8,0,4.8,0.5,5.9,1.6c1.1,1.1,1.7,3,1.7,5.8v4.5c0,2.8-0.6,4.7-1.7,5.8s-3.1,1.6-5.9,1.6H161.6z M167.6,169.4v-3.2
			c0-2.4-0.3-3.9-0.9-4.5s-1.9-1-3.8-1h-1.3c-1.9,0-3.2,0.3-3.8,1c-0.6,0.6-0.9,2.2-0.9,4.6v3.2c0,2.4,0.3,3.9,0.9,4.6
			c0.6,0.6,1.9,1,3.8,1h1.3c1.9,0,3.2-0.3,3.8-1C167.3,173.3,167.6,171.7,167.6,169.4z"/>
		<path d="M173.6,160.7v-2.4h2.3v-4.2h2.8v4.2h9.2v2.4h-9.2v10.4c0,1.5,0.2,2.5,0.7,3c0.5,0.5,1.4,0.8,2.8,0.8
			c1.3,0,2.3-0.3,2.7-0.8s0.7-1.5,0.7-3v-0.6h2.8v0.2c0,2.7-0.4,4.4-1.3,5.4s-2.7,1.4-5.5,1.4c-2.2,0-3.7-0.5-4.5-1.5
			c-0.8-1-1.3-2.7-1.3-5.3v-10H173.6z"/>
		<path d="M200.4,177.4c-2.8,0-4.8-0.5-5.9-1.6s-1.7-3-1.7-5.8v-4.5c0-2.8,0.6-4.7,1.7-5.8c1.1-1.1,3.1-1.6,5.9-1.6h1.3
			c2.8,0,4.8,0.5,5.9,1.6c1.1,1.1,1.7,3,1.7,5.8v4.5c0,2.8-0.6,4.7-1.7,5.8s-3.1,1.6-5.9,1.6H200.4z M206.4,169.4v-3.2
			c0-2.4-0.3-3.9-0.9-4.5s-1.9-1-3.8-1h-1.3c-1.9,0-3.2,0.3-3.8,1c-0.6,0.6-0.9,2.2-0.9,4.6v3.2c0,2.4,0.3,3.9,0.9,4.6
			c0.6,0.6,1.9,1,3.8,1h1.3c1.9,0,3.2-0.3,3.8-1C206.1,173.3,206.4,171.7,206.4,169.4z"/>
		<path d="M214.3,177.2v-18.9h2.7v2.6c0.4-1,1-1.7,1.8-2.2s1.9-0.7,3.3-0.7c2.1,0,3.5,0.5,4.3,1.5s1.2,2.7,1.2,5.3v0.1H225v-0.6
			c0-1.5-0.2-2.5-0.7-3s-1.4-0.8-2.7-0.8c-1.6,0-2.7,0.4-3.4,1.3c-0.7,0.9-1,2.3-1,4.3v11H214.3z"/>
		<path d="M230.8,171.6h2.8v0.4c0,1.2,0.4,2,1.1,2.4c0.7,0.4,2.2,0.7,4.3,0.7c2.4,0,3.9-0.2,4.5-0.7c0.6-0.4,0.8-1.3,0.8-2.6
			c0-1.2-0.2-2.1-0.7-2.5s-1.6-0.7-3.4-0.8c-0.7,0-1.6-0.1-2.8-0.1c-2.5-0.1-4-0.2-4.5-0.5c-0.7-0.4-1.2-0.9-1.5-1.6
			c-0.3-0.7-0.5-1.7-0.5-2.9c0-2.1,0.5-3.5,1.6-4.2c1.1-0.7,3.4-1.1,7-1.1c2.8,0,4.7,0.4,5.7,1.1c1,0.7,1.5,1.9,1.5,3.7H244v-0.2
			c0-0.8-0.4-1.4-1.1-1.7s-2.2-0.5-4.3-0.5c-2.1,0-3.4,0.2-4,0.6c-0.6,0.4-0.9,1.2-0.9,2.4c0,0.7,0.1,1.3,0.2,1.6
			c0.1,0.3,0.3,0.5,0.6,0.7c0.6,0.3,1.8,0.5,3.7,0.5c0.5,0,0.9,0,1.1,0c1.6,0.1,2.8,0.1,3.7,0.2c0.9,0.1,1.5,0.2,1.9,0.4
			c0.8,0.4,1.4,0.9,1.8,1.6s0.5,1.8,0.5,3.1c0,1.4-0.2,2.4-0.5,3.2s-1,1.3-1.9,1.9c-0.4,0.3-1.1,0.5-2,0.6c-0.9,0.1-2.2,0.2-3.8,0.2
			c-3.3,0-5.6-0.4-6.6-1.2s-1.6-2.2-1.6-4.2V171.6z"/>
	</g>
	<g>
		<path class="st0" d="M63.6,71.2c0-36.3,29.4-65.7,65.7-65.7c36.3,0,65.7,29.4,65.7,65.7c0,36.3-29.4,65.7-65.7,65.7
			C93,136.8,63.6,107.4,63.6,71.2z"/>
		
			<radialGradient id="SVGID_1_" cx="136.2383" cy="42.3175" r="75.1064" gradientTransform="matrix(0.8447 0.5352 -0.6682 1.0545 49.4325 -75.2259)" gradientUnits="userSpaceOnUse">
			<stop  offset="0" style="stop-color:#748AA3"/>
			<stop  offset="1" style="stop-color:#2D3341"/>
		</radialGradient>
		<path class="st1" d="M58.8,66.8c0-34.8,28.2-63,63-63c34.8,0,63,28.2,63,63c0,34.8-28.2,63-63,63C87,129.7,58.8,101.5,58.8,66.8z"
			/>
		<path class="st2" d="M169.1,108.3L141.3,8.5c-5.5-1.5-11.2-2.4-17.2-2.4c-3.9,0-7.7,0.4-11.3,1L61.2,69.6c0.1,9.3,2.2,18,5.8,25.9
			c28.4,5.9,77.9,16.1,82.2,17c3.4,0.7,5.9,1.9,6.4,4c0.1,0.6,0.4,1.7,0.7,2.9C161,116.3,165.3,112.6,169.1,108.3z M147.1,97.8
			L74.1,82.2c-1.9-0.4-2.5-2-1.2-3.5l51.6-63.2c1.2-1.5,2.7-1.2,3.2,0.7l22,78.9C150.2,97,149,98.2,147.1,97.8z"/>
		<path class="st3" d="M121.8,3.8c-3.9,0-7.7,0.4-11.3,1L58.9,67.3c0.1,9.3,2.2,18,5.8,25.9c28.4,5.9,77.9,16.1,82.2,17
			c3.4,0.7,5.9,1.9,6.4,4c0.3,1.1,0.9,4.1,1.4,6.3c4.9-3,9.3-6.6,13.2-10.8L139,6.2C133.5,4.6,127.8,3.8,121.8,3.8z M144.8,95.5
			L71.8,79.9c-1.9-0.4-2.5-2-1.2-3.5l51.6-63.2c1.3-1.5,2.7-1.2,3.2,0.7l22,78.9C147.9,94.7,146.7,95.9,144.8,95.5z"/>
		<g>
			<path class="st3" d="M121.8,0C85,0,55.1,29.9,55.1,66.8c0,36.9,29.9,66.8,66.8,66.8c36.9,0,66.8-29.9,66.8-66.8
				C188.6,29.9,158.7,0,121.8,0z M121.8,129.7c-34.8,0-63-28.2-63-63c0-34.8,28.2-63,63-63c34.8,0,63,28.2,63,63
				C184.8,101.5,156.6,129.7,121.8,129.7z"/>
		</g>
	</g>
</g>
</svg>
