<?xml version="1.0" encoding="utf-8"?>
<!-- Generator: Adobe Illustrator 24.0.1, SVG Export Plug-In . SVG Version: 6.00 Build 0)  -->
<svg version="1.1" id="Layer_1" xmlns="http://www.w3.org/2000/svg" xmlns:xlink="http://www.w3.org/1999/xlink" x="0px" y="0px"
	 viewBox="0 0 8 325" style="enable-background:new 0 0 8 325;" xml:space="preserve">
<style type="text/css">
	.st0{fill:url(#XMLID_4_);}
</style>
<g id="XMLID_1_">
	<path id="XMLID_2_" d="M5.4,161.2c1.5,0.1,2.6,1.2,2.6,2.5l0,157.5c0,1.4-1.3,2.5-2.9,2.5c-1.6,0-2.9-1.1-2.9-2.5l0-157.5
		c0-1.4,1.3-2.5,2.9-2.5C5.2,161.2,5.3,161.2,5.4,161.2z"/>
</g>
<g id="XMLID_84_">
	<linearGradient id="XMLID_4_" gradientUnits="userSpaceOnUse" x1="35.817" y1="159.5772" x2="-21.9443" y2="307.0859">
		<stop  offset="3.249100e-02" style="stop-color:#A6A8AB"/>
		<stop  offset="3.917759e-02" style="stop-color:#ABADAF"/>
		<stop  offset="6.859210e-02" style="stop-color:#BBBDBF"/>
		<stop  offset="0.1191" style="stop-color:#E2E3E4"/>
		<stop  offset="0.2347" style="stop-color:#A6A8AB"/>
		<stop  offset="0.2356" style="stop-color:#A7A9AC"/>
		<stop  offset="0.2734" style="stop-color:#D5D6D7"/>
		<stop  offset="0.2924" style="stop-color:#E6E7E8"/>
		<stop  offset="0.3183" style="stop-color:#E9EAEB"/>
		<stop  offset="0.3357" style="stop-color:#F1F1F2"/>
		<stop  offset="0.4007" style="stop-color:#D0D2D3"/>
		<stop  offset="0.4368" style="stop-color:#BBBDBF"/>
		<stop  offset="0.4874" style="stop-color:#A6A8AB"/>
		<stop  offset="0.6029" style="stop-color:#FFFFFF"/>
		<stop  offset="0.6859" style="stop-color:#D1D2D4"/>
		<stop  offset="0.6884" style="stop-color:#C9CBCD"/>
		<stop  offset="0.6943" style="stop-color:#BEBFC1"/>
		<stop  offset="0.7026" style="stop-color:#B7B9BB"/>
		<stop  offset="0.7256" style="stop-color:#B5B7B9"/>
		<stop  offset="0.7726" style="stop-color:#9C9EA1"/>
		<stop  offset="0.8448" style="stop-color:#FFFFFF"/>
		<stop  offset="0.8953" style="stop-color:#D0D2D3"/>
		<stop  offset="0.9169" style="stop-color:#CDCFD0"/>
		<stop  offset="0.931" style="stop-color:#C5C7C8"/>
		<stop  offset="0.9394" style="stop-color:#BBBDBF"/>
		<stop  offset="0.9651" style="stop-color:#B0B2B5"/>
		<stop  offset="1" style="stop-color:#A6A8AB"/>
	</linearGradient>
	<path id="XMLID_267_" class="st0" d="M3.2,162.5c1.5,0.1,2.6,1.2,2.6,2.5l0,157.5c0,1.4-1.3,2.5-2.9,2.5c-1.6,0-2.9-1.1-2.9-2.5
		L0,165c0-1.4,1.3-2.5,2.9-2.5C3,162.5,3.1,162.5,3.2,162.5z"/>
</g>
</svg>
