<?xml version="1.0" encoding="utf-8"?>
<!-- Generator: Adobe Illustrator 16.0.0, SVG Export Plug-In . SVG Version: 6.00 Build 0)  -->
<!DOCTYPE svg PUBLIC "-//W3C//DTD SVG 1.1//EN" "http://www.w3.org/Graphics/SVG/1.1/DTD/svg11.dtd">
<svg version="1.1" id="Layer_1" xmlns="http://www.w3.org/2000/svg" xmlns:xlink="http://www.w3.org/1999/xlink" x="0px" y="0px"
	 width="24.663px" height="32.785px" viewBox="0 0 24.663 32.785" enable-background="new 0 0 24.663 32.785" xml:space="preserve">
<path fill="#FFFFFF" d="M21.768,2.929h2.895V0H-0.001v2.929H2.53v1.59h2.508c-0.743,1.258-1.17,2.725-1.17,4.29
	c0,3.433,2.054,6.394,4.997,7.721c-2.943,1.327-4.997,4.289-4.997,7.72c0,1.452,0.368,2.821,1.015,4.016H2.895v1.591h-2.896v2.929
	h24.664v-2.929h-2.531v-1.591h-2.354c0.648-1.194,1.016-2.563,1.016-4.016c0-3.432-2.053-6.394-4.996-7.72
	c2.943-1.327,4.996-4.288,4.996-7.721c0-1.564-0.426-3.032-1.17-4.29h2.145V2.929z M12.151,23.727c0.192,0,0.349,0.156,0.349,0.347
	c0,0.192-0.156,0.349-0.349,0.349c-0.191,0-0.348-0.156-0.348-0.349C11.804,23.883,11.96,23.727,12.151,23.727z M11.882,23.492
	v-2.863h0.488v2.844c-0.068-0.025-0.143-0.04-0.219-0.04C12.056,23.433,11.964,23.455,11.882,23.492z M12.722,24.365l2.388,2.467
	l-0.35,0.34l-2.411-2.489C12.511,24.629,12.645,24.515,12.722,24.365z M19.331,8.809c0,3.205-2.166,5.913-5.109,6.74v1.962
	c2.943,0.827,5.109,3.534,5.109,6.739c0,1.492-0.471,2.878-1.271,4.016h-2.404c1.105-0.985,1.801-2.418,1.801-4.016
	c0-2.621-1.873-4.803-4.353-5.281v-4.709c4.539-1.208,4.787-4.023,4.787-4.023H6.408c1.077,3.155,4.848,4.023,4.848,4.023v4.673
	c-2.581,0.396-4.558,2.625-4.558,5.317c0,1.598,0.696,3.03,1.801,4.016H6.603c-0.801-1.138-1.271-2.523-1.271-4.016
	c0-3.061,1.976-5.67,4.718-6.617v-2.207c-2.742-0.948-4.718-3.555-4.718-6.617c0-1.616,0.55-3.104,1.473-4.29h11.053
	C18.78,5.705,19.331,7.193,19.331,8.809z"/>
</svg>
