<?xml version="1.0" encoding="utf-8"?>
<!-- Generator: Adobe Illustrator 16.0.0, SVG Export Plug-In . SVG Version: 6.00 Build 0)  -->
<!DOCTYPE svg PUBLIC "-//W3C//DTD SVG 1.1//EN" "http://www.w3.org/Graphics/SVG/1.1/DTD/svg11.dtd">
<svg version="1.1" id="Layer_1" xmlns="http://www.w3.org/2000/svg" xmlns:xlink="http://www.w3.org/1999/xlink" x="0px" y="0px"
	 width="27.814px" height="27.813px" viewBox="0 0 27.814 27.813" enable-background="new 0 0 27.814 27.813" xml:space="preserve">
<path fill-rule="evenodd" clip-rule="evenodd" fill="#FFFFFF" d="M14.356,7.384L1.253,20.486C0.418,21.322,0,22.424,0,23.523
	c0,1.096,0.415,2.191,1.243,3.027c0.006,0.006,0.013,0.012,0.021,0.02c0.834,0.828,1.93,1.242,3.026,1.242
	c1.1,0,2.201-0.418,3.036-1.254l13.103-13.102c0.951,0.09,1.914-0.021,2.824-0.331c0.945-0.322,1.834-0.86,2.586-1.612
	c0.926-0.926,1.525-2.056,1.801-3.247c0.283-1.224,0.221-2.51-0.188-3.704c-0.02-0.067-0.057-0.131-0.109-0.184
	c-0.17-0.17-0.443-0.17-0.613,0l-4.102,4.1l-0.02,0.006l-1.375-0.368l-1.328-0.356L19.55,6.432l-0.357-1.328l1.51-1.508l2.559-2.56
	c0.051-0.049,0.092-0.111,0.113-0.184c0.072-0.229-0.055-0.473-0.283-0.544l-0.002,0c-1.178-0.369-2.438-0.406-3.635-0.113
	c-1.156,0.284-2.252,0.877-3.154,1.779c-0.752,0.752-1.291,1.64-1.613,2.586C14.375,5.47,14.266,6.434,14.356,7.384L14.356,7.384z
	 M5.971,21.842c0.462,0.463,0.692,1.068,0.692,1.674c0,0.604-0.23,1.207-0.692,1.67s-1.067,0.693-1.672,0.693
	s-1.21-0.23-1.671-0.693c-0.462-0.463-0.693-1.066-0.693-1.67c0-0.605,0.231-1.211,0.693-1.674c0.461-0.461,1.066-0.691,1.671-0.691
	S5.509,21.381,5.971,21.842z"/>
</svg>
