<?xml version="1.0" encoding="utf-8"?>
<!-- Generator: Adobe Illustrator 16.0.0, SVG Export Plug-In . SVG Version: 6.00 Build 0)  -->
<!DOCTYPE svg PUBLIC "-//W3C//DTD SVG 1.1//EN" "http://www.w3.org/Graphics/SVG/1.1/DTD/svg11.dtd">
<svg version="1.1" id="Layer_1" xmlns="http://www.w3.org/2000/svg" xmlns:xlink="http://www.w3.org/1999/xlink" x="0px" y="0px"
	 width="28.887px" height="28.887px" viewBox="0 0 28.887 28.887" enable-background="new 0 0 28.887 28.887" xml:space="preserve">
<path fill-rule="evenodd" clip-rule="evenodd" fill="#FFFFFF" d="M23.416,9.254c2.87,4.961,1.177,11.305-3.786,14.176
	c-4.962,2.855-11.305,1.162-14.163-3.801C2.596,14.667,4.304,8.325,9.253,5.467C14.216,2.597,20.558,4.305,23.416,9.254
	L23.416,9.254z M14.954,16.703c-0.218,0-0.383-0.164-0.383-0.369c0-0.219,0.165-0.383,0.383-0.383c0.206,0,0.369,0.164,0.369,0.383
	C15.323,16.539,15.16,16.703,14.954,16.703L14.954,16.703z M13.942,12.931c-0.218,0-0.382-0.164-0.382-0.368
	c0-0.22,0.164-0.385,0.382-0.385c0.206,0,0.37,0.165,0.37,0.385C14.312,12.767,14.148,12.931,13.942,12.931L13.942,12.931z
	 M16.663,15.145c-0.109,0.178-0.342,0.232-0.52,0.137c-0.19-0.109-0.245-0.34-0.137-0.52c0.096-0.177,0.329-0.246,0.506-0.137
	C16.704,14.722,16.759,14.954,16.663,15.145L16.663,15.145z M12.89,14.134c-0.109,0.177-0.342,0.231-0.52,0.136
	c-0.179-0.109-0.247-0.342-0.138-0.52c0.097-0.177,0.328-0.245,0.506-0.136C12.931,13.709,12.986,13.942,12.89,14.134L12.89,14.134z
	 M16.157,12.876c0.096,0.177,0.041,0.409-0.15,0.519c-0.177,0.097-0.41,0.042-0.506-0.137c-0.109-0.191-0.055-0.423,0.138-0.52
	C15.816,12.63,16.047,12.699,16.157,12.876L16.157,12.876z M13.395,15.637c0.097,0.178,0.042,0.41-0.149,0.52
	c-0.179,0.096-0.41,0.041-0.507-0.137c-0.108-0.191-0.054-0.424,0.138-0.52C13.053,15.391,13.286,15.459,13.395,15.637
	L13.395,15.637z M15.296,13.942c0.272,0.479,0.122,1.082-0.356,1.354c-0.479,0.287-1.08,0.123-1.353-0.354
	c-0.274-0.48-0.109-1.082,0.354-1.354C14.42,13.313,15.022,13.477,15.296,13.942L15.296,13.942z M5.276,12.739
	c0.287-0.217,0.711-0.354,1.271-0.094l5.085,2.309l-3.95,3.937c-0.438,0.451-0.876,0.465-1.217,0.355L6.37,19.109
	C5.208,17.1,4.892,14.844,5.276,12.739L5.276,12.739z M16.909,15.855l5.591-0.615c0.616-0.054,0.971,0.205,1.176,0.505
	c-0.328,2.311-1.518,4.471-3.431,5.988c-0.355-0.014-0.766-0.191-1.025-0.752L16.909,15.855z M16.147,12.475l0.734-5.75
	c0.068-0.615,0.396-0.916,0.738-1.04c1.996,0.71,3.745,2.12,4.895,4.101c0.272,0.479,0.505,0.984,0.696,1.49
	c-0.136,0.329-0.424,0.657-1.053,0.725L16.147,12.475z M13.04,11.98L13.04,11.98L7.914,9.663C7.339,9.404,7.163,8.994,7.149,8.638
	C7.859,7.75,8.734,6.971,9.787,6.37c1.066-0.615,2.2-0.998,3.363-1.162c0.287,0.205,0.561,0.56,0.492,1.188L13.04,11.98L13.04,11.98
	z M9.636,22.432c-0.109-0.342-0.082-0.779,0.354-1.23l3.938-3.938l2.324,5.072c0.26,0.574,0.124,0.984-0.096,1.271
	C13.901,24.031,11.578,23.594,9.636,22.432L9.636,22.432z M26.956,7.217c3.979,6.917,1.614,15.748-5.29,19.738
	c-6.903,3.979-15.747,1.613-19.725-5.289C-2.051,14.762,0.314,5.918,7.216,1.94C14.134-2.051,22.964,0.314,26.956,7.217
	L26.956,7.217z M24.181,8.83c3.103,5.372,1.258,12.249-4.114,15.352c-5.387,3.104-12.248,1.258-15.352-4.115
	C1.598,14.695,3.444,7.818,8.816,4.715C14.203,1.612,21.079,3.444,24.181,8.83L24.181,8.83z"/>
</svg>
